<svg width="12" height="15" viewBox="0 0 12 15" fill="none" xmlns="http://www.w3.org/2000/svg">
<path fill-rule="evenodd" clip-rule="evenodd" d="M5.4465 14.7961C5.4465 14.7961 0 10.3015 0 5.87904C0 4.31982 0.632141 2.82446 1.75736 1.72193C2.88258 0.619397 4.4087 0 6 0C7.5913 0 9.11742 0.619397 10.2426 1.72193C11.3679 2.82446 12 4.31982 12 5.87904C12 10.3015 6.5535 14.7961 6.5535 14.7961C6.2505 15.0694 5.75175 15.0665 5.4465 14.7961ZM6 8.45112C6.34472 8.45112 6.68606 8.38459 7.00454 8.25533C7.32302 8.12607 7.6124 7.93661 7.85616 7.69777C8.09991 7.45893 8.29327 7.17539 8.42518 6.86333C8.5571 6.55127 8.625 6.21681 8.625 5.87904C8.625 5.54127 8.5571 5.20681 8.42518 4.89475C8.29327 4.58269 8.09991 4.29914 7.85616 4.0603C7.6124 3.82146 7.32302 3.63201 7.00454 3.50275C6.68606 3.37349 6.34472 3.30696 6 3.30696C5.30381 3.30696 4.63613 3.57794 4.14384 4.0603C3.65156 4.54266 3.375 5.19688 3.375 5.87904C3.375 6.5612 3.65156 7.21541 4.14384 7.69777C4.63613 8.18013 5.30381 8.45112 6 8.45112Z" fill="white"/>
</svg>
