<svg width="17" height="20" viewBox="0 0 17 20" fill="none" xmlns="http://www.w3.org/2000/svg">
<path d="M8.2349 0H8.40076C8.92435 0 9.29909 0.319151 9.52498 0.957799V1.2309C9.52498 1.33326 9.43651 1.58441 9.26024 1.98326V2.01725C9.43651 2.82096 9.52498 3.57261 9.52498 4.27325V4.71778C9.64052 4.6271 9.76162 4.58141 9.88861 4.58141H10.0212C10.2418 4.58141 10.4067 4.74046 10.5177 5.05961H10.5503C10.6881 4.9119 10.7769 4.72948 10.8151 4.51305C10.5947 3.56163 10.484 3.05971 10.484 3.0087C10.484 2.76925 10.661 2.59852 11.0135 2.49544H11.1461C11.4431 2.49544 11.7078 2.95203 11.94 3.86342C12.4577 3.72669 12.7998 3.65868 12.9649 3.65868H12.9979C13.373 3.70402 13.56 3.88644 13.56 4.20559C13.56 4.57574 13.2738 4.81519 12.7005 4.92287C12.0389 5.0426 11.7078 5.22502 11.7078 5.47014C11.686 5.47014 11.6419 5.54983 11.5756 5.70887H11.873C12.1048 5.70887 12.2703 5.86898 12.3695 6.18812H12.4358C13.3334 5.62917 14.0836 5.29941 14.6842 5.19668C14.982 4.64942 15.3019 4.37596 15.644 4.37596C16.2776 4.37596 16.6964 4.63808 16.9004 5.16232C16.9441 5.25335 16.9667 5.37875 16.9667 5.53814V5.70853C16.9667 6.32982 16.4816 6.69465 15.5118 6.80269C14.9656 7.42398 14.3265 7.9252 13.5933 8.30704L13.4278 8.37576V8.40941C13.5378 8.57518 13.5933 8.70021 13.5933 8.78593V8.8543C13.5933 9.00838 13.516 9.17911 13.3615 9.3672V9.40156H13.7255C13.9403 9.40156 14.238 9.16176 14.6183 8.68357C14.8879 8.40976 15.12 8.27268 15.3133 8.27268H15.3796C15.7314 8.37575 15.9087 8.55782 15.9087 8.81994V8.8543C15.9087 9.09339 15.644 9.46992 15.1145 9.98282C15.644 10.5177 15.9087 10.8829 15.9087 11.0766V11.179C15.8088 11.5435 15.6322 11.7263 15.3796 11.7263H15.3133C15.0541 11.7263 14.6131 11.3611 13.9903 10.6321L13.7588 10.5977H13.4278V10.6665C13.5378 10.8315 13.5933 10.9569 13.5933 11.0426V11.145C13.5933 11.2881 13.5271 11.4358 13.3949 11.5895V11.6235C13.8466 11.8063 14.4424 12.2052 15.1811 12.8201C15.4344 13.1396 15.6218 13.2986 15.7429 13.2986H16.0739C16.5583 13.2986 16.8675 13.6978 17 14.4952V14.5979C17 15.0768 16.669 15.4299 16.0076 15.6577H15.7762C15.2745 15.6577 14.9323 15.3959 14.7502 14.872C14.6631 14.803 14.3761 14.7119 13.8907 14.5979C13.1582 14.2504 12.6509 13.9769 12.3695 13.7775H12.3036C12.3036 14.074 12.1159 14.2557 11.7415 14.3244H11.4767V14.3584C11.6419 14.7459 11.8511 14.939 12.1051 14.939C13.0087 15.1157 13.4608 15.3782 13.4608 15.7253V15.7941C13.4608 16.1185 13.2623 16.3126 12.8661 16.375C12.7061 16.375 12.3525 16.307 11.8071 16.1699C11.6031 17.0816 11.3501 17.5379 11.0468 17.5379H10.9806C10.6058 17.4635 10.4181 17.2811 10.4181 16.991V16.9222L10.7165 15.4526L10.4514 14.9393C10.2474 15.2815 10.0597 15.4526 9.88896 15.4526H9.75642L9.5916 15.4182V16.444C9.5916 16.7575 9.50312 17.2927 9.32685 18.0508C9.50312 18.3469 9.5916 18.5637 9.5916 18.7007V18.9062C9.5916 19.4127 9.26058 19.7776 8.59958 20H8.3678C7.76127 20 7.39764 19.6125 7.27654 18.8375V18.7351C7.27654 18.6101 7.36502 18.3706 7.54129 18.0171C7.36502 17.4645 7.27654 16.8719 7.27654 16.2393V15.3846H7.01215C6.63741 15.2992 6.44969 15.1281 6.44969 14.8724H6.41638C6.26266 15.1398 6.18494 15.3332 6.18494 15.4533C6.38342 16.308 6.48265 16.7866 6.48265 16.8889C6.37266 17.2765 6.19569 17.4702 5.95385 17.4702H5.82061C5.44656 17.4702 5.20402 17.026 5.09368 16.1373L4.00208 16.3427C3.62665 16.28 3.43997 16.0859 3.43997 15.7611V15.6584C3.43997 15.3336 3.75919 15.1058 4.39868 14.9751C4.99445 14.8664 5.29216 14.707 5.29216 14.4959C5.31402 14.4959 5.35774 14.4162 5.42402 14.2564H5.15961C4.78452 14.1824 4.59715 14.0347 4.59715 13.8122C3.62109 14.3995 2.86121 14.7297 2.31576 14.8033C2.29355 14.8033 2.15024 14.9967 1.88549 15.3846C1.65926 15.5674 1.40597 15.658 1.12491 15.658H0.99271C0.331364 15.4816 0.00103772 15.1398 0.00103772 14.6322V14.3931C0.00103772 13.8802 0.265444 13.5158 0.79459 13.299C0.893826 13.299 0.960094 13.2876 0.99271 13.265L1.19049 13.299C1.30153 13.299 1.59855 13.0599 2.08397 12.5813C2.46426 12.2735 2.95975 11.9434 3.57251 11.5899C3.46183 11.4245 3.40666 11.2994 3.40666 11.2141V11.1114C3.40666 10.9743 3.46183 10.8266 3.57251 10.6668V10.5981H3.2415C3.04303 10.5981 2.73422 10.8606 2.31576 11.3844C2.02325 11.6126 1.82477 11.7266 1.71999 11.7266H1.58744C1.33935 11.7266 1.18563 11.5438 1.12456 11.1794V11.0426C1.12456 10.8659 1.38966 10.5131 1.91846 9.98318C1.38966 9.53227 1.12456 9.16813 1.12456 8.88901V8.75228C1.1957 8.45616 1.33935 8.30774 1.55413 8.30774H1.71964C1.91811 8.30774 2.34837 8.6609 3.00902 9.36755L3.17488 9.40192H3.53851L3.60444 9.36755C3.47189 9.16813 3.40597 9.00873 3.40597 8.88901V8.82029C3.40597 8.68392 3.46114 8.54719 3.57183 8.40975V8.3761C3.0916 8.21069 2.35323 7.68645 1.35566 6.80339H1.15718C0.583966 6.80339 0.198126 6.46158 0 5.77759V5.50413C0 4.9629 0.297362 4.59806 0.892782 4.41033H1.25573C1.69154 4.41033 2.02255 4.66075 2.24809 5.16232C3.05309 5.39008 3.78036 5.70887 4.43095 6.1194C4.43095 6.14243 4.47537 6.15341 4.5635 6.15341C4.5635 5.93167 4.74011 5.78326 5.09264 5.70887H5.25815L5.42297 5.74394C5.42297 5.29373 4.86121 4.9629 3.73664 4.75214C3.53817 4.63277 3.43928 4.4957 3.43928 4.34197V4.10287C3.51111 3.80639 3.65371 3.65868 3.86884 3.65868H4.03469C4.15024 3.65868 4.48091 3.72669 5.02672 3.86342C5.19743 2.95203 5.47259 2.49544 5.85288 2.49544H5.95281C6.20611 2.49544 6.37161 2.68991 6.44864 3.07706L6.15093 4.54741C6.18424 4.69511 6.27272 4.85487 6.41568 5.0256H6.44899C6.57009 4.72947 6.73594 4.58141 6.94552 4.58141H7.17662V3.96579C7.17662 3.32785 7.27585 2.66689 7.47433 1.98326C7.29771 1.64675 7.20923 1.40765 7.20923 1.2649V1.05981C7.38619 0.353153 7.72762 0 8.2349 0ZM7.67315 1.06017V1.26526C7.84941 1.69244 7.93719 1.93189 7.93719 1.9836C7.71686 2.66723 7.60687 3.72669 7.60687 5.16303L7.83865 6.15413C7.94795 6.29723 8.00382 6.44493 8.00382 6.59831C8.00382 6.79844 7.81609 7.01486 7.4417 7.24829C7.40319 7.27131 7.34767 7.2823 7.2762 7.2823C7.09993 7.2823 6.96738 7.05454 6.87959 6.59831C6.87959 6.42227 6.98925 5.95505 7.20958 5.19739C7.11589 5.106 7.0281 5.05995 6.94552 5.05995C6.78556 5.5392 6.63081 5.7783 6.4823 5.7783H6.44899C6.26197 5.7783 6.00764 5.39114 5.68841 4.61577V4.54776L5.98612 3.04306L5.88688 2.97505H5.85323C5.75469 2.97505 5.61069 3.37389 5.42367 4.17123C5.33588 4.30866 5.23664 4.37668 5.12664 4.37668C4.49236 4.21728 4.11762 4.13723 4.00208 4.13723H3.90285C3.90285 4.18328 3.8914 4.20629 3.86954 4.20629C3.86954 4.30866 4.23387 4.43405 4.96114 4.58212C5.34629 4.73018 5.62179 4.98097 5.78764 5.33412C5.94205 5.73863 6.01909 5.96639 6.01909 6.01811C5.95351 6.1775 5.85357 6.2572 5.72172 6.2572H5.6558C5.62179 6.2572 5.44656 6.23453 5.12699 6.18919H5.09368C5.04927 6.19521 5.02775 6.21788 5.02775 6.2572V6.29156C5.02775 6.38259 5.47918 6.54234 6.38341 6.77045C6.69223 7.03789 6.85739 7.28902 6.87994 7.5228C6.87994 7.75588 6.60374 7.92732 6.05239 8.03536H5.98646C5.85357 8.03536 5.60097 7.80724 5.22623 7.35137C4.33345 6.50267 3.27446 5.92104 2.05101 5.60792C1.91881 5.49988 1.77481 5.30613 1.62109 5.02701C1.51631 4.93633 1.36156 4.8786 1.15823 4.85593C0.672801 4.92429 0.430603 5.17542 0.430603 5.60792C0.563149 6.08682 0.783485 6.32627 1.09195 6.32627C1.28453 6.30325 1.39452 6.29191 1.42228 6.29191C1.49445 6.29191 1.83587 6.57706 2.44795 7.14663C3.57807 7.94468 4.54823 8.40055 5.35809 8.51461C5.5125 8.51461 5.66724 8.82206 5.82061 9.43769V9.54041C5.79354 9.74515 5.69431 9.84786 5.52359 9.84786H5.2925C5.15475 9.84786 4.79077 9.54041 4.20056 8.92514C4.10722 8.83411 4.01909 8.78841 3.93581 8.78841C3.89175 8.78841 3.87022 8.82242 3.87022 8.89114C4.11276 9.23862 4.25607 9.47807 4.30049 9.60877C4.30049 9.7455 4.21201 9.82519 4.03574 9.84786H2.9771C2.86156 9.84786 2.48681 9.52872 1.85253 8.89078C1.77099 8.82206 1.69257 8.78806 1.62109 8.78806H1.58778V8.85643C1.58778 8.99917 1.85253 9.31761 2.38133 9.81387C2.40389 9.93359 2.41534 10.0019 2.41534 10.0189C2.41534 10.173 2.18286 10.4578 1.72034 10.874C1.63186 10.9704 1.58778 11.0618 1.58778 11.1468V11.1811C1.58778 11.2265 1.6211 11.2495 1.68702 11.2495C1.74774 11.2495 2.10028 10.919 2.74532 10.2577C2.8449 10.1897 2.99965 10.144 3.20819 10.1213C3.50659 10.144 3.75954 10.1553 3.96981 10.1553C4.16829 10.2237 4.26718 10.3264 4.26718 10.4631V10.4971C4.26718 10.5829 4.14573 10.7536 3.90319 11.01C3.88098 11.0497 3.86989 11.0954 3.86989 11.1464V11.1808C3.87544 11.2261 3.89764 11.2491 3.93546 11.2491C4.0517 11.2491 4.38237 10.9527 4.92817 10.3604C5.09889 10.2237 5.2533 10.1553 5.3907 10.1553H5.45697C5.72172 10.178 5.85357 10.2921 5.85357 10.4971C5.76058 11.1811 5.59473 11.5229 5.35774 11.5229C4.60861 11.5229 3.53887 12.0585 2.1499 13.1297C1.80292 13.5632 1.48265 13.7796 1.19014 13.7796C1.0746 13.7566 1.00868 13.7453 0.992372 13.7453C0.617632 13.8647 0.430253 14.1041 0.430253 14.4633C0.507283 14.9415 0.716514 15.1813 1.05864 15.1813H1.15788C1.46669 15.1813 1.69778 14.9762 1.85219 14.5656C2.08397 14.4176 2.54719 14.2352 3.2415 14.0187C3.91395 13.774 4.78452 13.1353 5.85357 12.1042L6.01909 12.0699C6.48821 12.0699 6.7637 12.2293 6.84663 12.5484C6.84663 12.9756 6.31714 13.2837 5.2592 13.4715C5.127 13.5402 5.06072 13.5855 5.06072 13.6082V13.7109C5.06662 13.7566 5.08813 13.7796 5.12699 13.7796H5.15996C5.47918 13.7339 5.65614 13.7109 5.68875 13.7109H5.72206C5.91984 13.7393 6.01943 13.842 6.01943 14.0187C5.7061 14.8387 5.41915 15.2493 5.15996 15.2493L4.00243 15.5911C3.93581 15.6425 3.90319 15.6761 3.90319 15.6935V15.7618C3.90319 15.8302 3.94726 15.8646 4.03574 15.8646C4.71305 15.7052 5.11034 15.6248 5.22658 15.6248C5.41291 15.6248 5.57911 16.0466 5.72241 16.8896L5.85427 16.9927H5.9202C5.97086 16.9927 6.00312 16.9357 6.01943 16.8216C5.82095 15.9839 5.72206 15.5167 5.72206 15.42C5.72206 15.0895 5.9424 14.679 6.38341 14.1891H6.61485C6.71408 14.1891 6.82408 14.4172 6.94587 14.8738L7.0118 14.9075H7.11069C7.1551 14.9075 7.17662 14.8738 7.17662 14.8047C6.97814 13.9334 6.87959 13.4541 6.87959 13.3691V13.3004C6.87959 13.0273 7.03331 12.8109 7.34212 12.6515C7.52429 12.6515 7.77793 12.8909 8.10305 13.3691V13.4715C7.8383 14.2408 7.70576 15.0159 7.70576 15.7965V15.9329C7.70576 16.5939 7.80499 17.2892 8.00312 18.0185C8.00312 18.1103 7.91499 18.349 7.73872 18.7365V18.8732C7.83276 19.3064 8.01943 19.5229 8.30118 19.5229H8.46634C8.9077 19.4205 9.12769 19.2154 9.12769 18.9076V18.7365C8.95107 18.3263 8.86259 18.1103 8.86259 18.0869V18.0525C9.06106 17.1298 9.1603 16.4912 9.1603 16.1384C9.1603 15.1699 9.0281 14.2695 8.76301 13.4371V13.4028C8.76301 13.1867 8.97224 12.9472 9.39208 12.6855C9.43025 12.6625 9.48612 12.6515 9.5576 12.6515C9.86641 12.8619 10.0205 13.1357 10.0205 13.4715C9.82199 14.3659 9.72276 14.8565 9.72276 14.9411L9.78868 14.9762H9.85461C9.92089 14.9022 10.0316 14.6627 10.1856 14.2578L10.3511 14.2238H10.3845C10.5385 14.2238 10.7262 14.4629 10.9466 14.9411C11.101 15.1179 11.178 15.3116 11.178 15.5227C10.9795 16.3948 10.8803 16.8734 10.8803 16.9587C10.8803 16.9931 10.9136 17.0271 10.9795 17.0611C11.0569 17.0157 11.2113 16.6056 11.4424 15.8302C11.5586 15.7165 11.6575 15.6595 11.7405 15.6595C12.3515 15.8192 12.7377 15.8986 12.8983 15.8986C12.9417 15.8759 12.9754 15.8649 12.9969 15.8649V15.7622C12.9969 15.6761 12.5781 15.5397 11.7405 15.352C11.4042 15.1926 11.1173 14.7934 10.8799 14.1555C10.8581 14.1154 10.847 14.0698 10.847 14.0187C10.847 13.8647 10.957 13.774 11.1776 13.7453C11.415 13.8137 11.5909 13.8477 11.7065 13.8477H11.7724C11.8171 13.8477 11.8387 13.825 11.8387 13.7796V13.7109C11.8387 13.6029 11.3647 13.4318 10.416 13.198C10.1686 12.9642 10.0361 12.7368 10.0198 12.5148C10.0198 12.2927 10.3175 12.1442 10.9126 12.0702H11.0118C11.1329 12.0702 11.3973 12.298 11.8053 12.7535C12.8085 13.6202 13.8227 14.1558 14.8484 14.3609C15.0361 14.4519 15.212 14.6914 15.3779 15.0789C15.5479 15.1469 15.6697 15.1816 15.7411 15.1816H15.8737C16.3144 15.0846 16.5347 14.8681 16.5347 14.532V14.4636C16.4525 14.0078 16.2869 13.78 16.0389 13.78H15.7078C15.4601 13.78 15.1509 13.5515 14.7821 13.096C13.4146 12.0475 12.3456 11.5233 11.5739 11.5233C11.3754 11.5233 11.2321 11.1815 11.1443 10.4975V10.4635C11.1718 10.258 11.271 10.1557 11.4414 10.1557H11.5739C11.8168 10.1557 12.2241 10.4745 12.7981 11.1131C12.8799 11.1815 12.957 11.2158 13.0291 11.2158H13.0625C13.1069 11.2158 13.1277 11.1928 13.1277 11.1471C13.1277 11.0731 12.9958 10.8793 12.7311 10.5662L12.6985 10.4295C12.6985 10.2814 12.7977 10.1904 12.9958 10.156H13.9879C14.1697 10.156 14.5555 10.4979 15.145 11.1815C15.179 11.1815 15.2224 11.2042 15.2776 11.2498H15.3435C15.4098 11.2498 15.4434 11.2042 15.4434 11.1131C15.4434 11.0501 15.1787 10.743 14.6492 10.1904C14.6051 10.116 14.5833 10.0476 14.5833 9.9853C14.5833 9.83688 14.771 9.59779 15.145 9.2666C15.3435 9.06753 15.4434 8.91947 15.4434 8.82242L15.3435 8.75441C15.2169 8.75441 14.8973 9.05089 14.3844 9.64314C14.1697 9.77986 14.0264 9.84822 13.9549 9.84822H12.9955C12.7977 9.81988 12.6981 9.71752 12.6981 9.54077C12.6981 9.43202 12.8414 9.2156 13.127 8.89114V8.82242C13.127 8.77708 13.1058 8.75441 13.0618 8.75441H13.0284C12.9067 8.75441 12.543 9.08489 11.9372 9.74549C11.7658 9.81386 11.6443 9.84822 11.5729 9.84822H11.5066C11.2863 9.81988 11.1763 9.70618 11.1763 9.5064V9.4384C11.1763 8.77708 11.474 8.44695 12.069 8.44695C12.6537 8.29889 13.4247 7.90005 14.3841 7.25042C14.6541 7.02797 14.9743 6.73185 15.3432 6.36169L16.17 6.19097C16.391 6.01457 16.501 5.85481 16.501 5.7117V5.50698C16.501 5.12513 16.2252 4.9087 15.6742 4.85734C15.4757 4.85734 15.2661 5.07413 15.0458 5.50698C14.9573 5.59836 14.6048 5.72375 13.9872 5.88315C13.2207 6.17927 12.4157 6.7152 11.5729 7.49022C11.3473 7.85471 11.1485 8.03712 10.9774 8.03712C10.4865 8.03712 10.1894 7.86639 10.0847 7.52458C10.0847 6.97767 10.6579 6.61248 11.8043 6.43041C11.8043 6.40774 11.8376 6.39605 11.9035 6.39605V6.25933C11.9035 6.21399 11.881 6.19131 11.8376 6.19131C11.7602 6.19131 11.5621 6.22532 11.2422 6.29368C11.0659 6.29368 10.9667 6.17963 10.9448 5.95222C11.3033 5.06279 11.6558 4.6186 12.0031 4.6186C12.6041 4.48789 12.9677 4.36216 13.0947 4.24279V4.20914C13.0947 4.16309 13.0725 4.14006 13.0288 4.14006H12.9955C12.8796 4.14006 12.4719 4.22011 11.7717 4.37951C11.6232 4.37951 11.4462 3.98067 11.2429 3.18298C11.1607 3.04625 11.1048 2.97788 11.0774 2.97788H11.0444L10.9452 3.0459C11.1655 3.95233 11.2758 4.45354 11.2758 4.5506C11.2758 4.86407 11.0444 5.27425 10.5815 5.78114L10.4153 5.81514C10.2776 5.81514 10.1565 5.57605 10.0517 5.09786L9.98577 5.06279H9.88654C9.84247 5.06279 9.82061 5.09786 9.82061 5.16586C10.0191 6.06026 10.1183 6.55048 10.1183 6.6355C9.96947 7.1824 9.77099 7.45622 9.5229 7.45622C9.33553 7.45622 9.05968 7.17143 8.69639 6.60114V6.53313C8.93859 5.7868 9.05968 4.98911 9.05968 4.13971C9.05968 3.62716 8.9712 2.90916 8.79494 1.98643V1.95208C8.79494 1.87238 8.88342 1.63328 9.05968 1.23409V1.09736C8.94969 0.686829 8.74011 0.481737 8.43165 0.481737H8.29979C7.88168 0.575604 7.67315 0.769357 7.67315 1.06017ZM2.38098 6.08575H2.48091C2.88896 6.1821 3.54962 6.52428 4.46496 7.11157C4.90562 7.45303 5.12664 7.69248 5.12664 7.82921V7.93192C5.09333 8.02331 5.01596 8.06865 4.89486 8.06865H4.82893C3.81991 7.72152 2.92748 7.18595 2.1499 6.46193V6.22284C2.18842 6.1311 2.26544 6.08575 2.38098 6.08575ZM4.96079 11.9661C5.07113 12.0004 5.12664 12.0798 5.12664 12.2052V12.3079C4.50312 12.9742 3.65441 13.5214 2.58015 13.9486C2.54129 13.9716 2.49723 13.983 2.44761 13.983H2.38098C2.26544 13.983 2.18842 13.9376 2.1499 13.8462V13.6415C2.8161 12.9575 3.54441 12.4556 4.3331 12.1372C4.65788 12.0231 4.86745 11.9661 4.96079 11.9661ZM4.8619 11.111H4.92782C5.21374 11.111 5.35739 10.9739 5.35739 10.7005V10.6665H5.32478C5.26961 10.6668 5.11519 10.8152 4.8619 11.111ZM4.89486 8.88901V8.92301C4.89486 8.95702 5.03817 9.10508 5.32512 9.3672V9.3332C5.27516 9.03708 5.13185 8.88901 4.89486 8.88901ZM5.62179 7.04249V7.07685C5.88723 7.39599 6.04198 7.55539 6.08535 7.55539C6.26231 7.51537 6.3501 7.47002 6.3501 7.41866C6.34975 7.28194 6.10791 7.1569 5.62179 7.04249ZM5.75468 12.8204V12.8548C6.12942 12.7581 6.31645 12.678 6.31645 12.6157C6.20646 12.5697 6.12943 12.547 6.08501 12.547C6.02429 12.564 5.91464 12.6554 5.75468 12.8204ZM6.3168 8.34175C6.49341 8.34175 6.58188 8.43314 6.58188 8.6152C6.52081 8.86599 6.41083 8.99137 6.25087 8.99137H6.21756C6.04198 8.99137 5.9535 8.88901 5.9535 8.68392V8.64992C5.9535 8.44447 6.07426 8.34175 6.3168 8.34175ZM6.25052 11.077C6.47155 11.168 6.58154 11.2934 6.58154 11.4528V11.4865C6.58154 11.6692 6.49306 11.7606 6.31645 11.7606C6.09612 11.7093 5.98612 11.5952 5.98612 11.4185V11.3841C6.01874 11.1794 6.10791 11.077 6.25052 11.077ZM7.63983 8.00029H9.39278C9.59126 8.00029 9.8553 8.3538 10.1863 9.05975C10.4951 9.50428 10.6496 9.8461 10.6496 10.0859C10.0708 11.3618 9.67349 12.0004 9.45871 12.0004C9.23248 12.0231 9.05621 12.0344 8.92957 12.0344H8.0694C7.58466 12.0344 7.27585 11.9317 7.1433 11.727C6.6145 10.8209 6.34976 10.2623 6.34976 10.0512C6.34976 9.72106 6.60305 9.18548 7.11034 8.44482C7.22103 8.1487 7.39729 8.00029 7.63983 8.00029ZM6.81298 9.98318C6.8626 10.3186 7.12699 10.8315 7.60652 11.5212L8.43337 11.5895C9.11658 11.5895 9.45871 11.5098 9.45871 11.3504C9.74497 10.8949 9.9875 10.4617 10.1863 10.0512C10.093 9.77809 9.80603 9.25385 9.32651 8.47847L9.16065 8.44448H7.83795C7.63948 8.44448 7.49618 8.5812 7.4077 8.85465C7.01145 9.44725 6.81298 9.82343 6.81298 9.98318ZM7.37509 6.32485L7.34177 6.56395V6.63196C7.34732 6.67801 7.36953 6.70068 7.4077 6.70068C7.44101 6.70068 7.47398 6.66631 7.50694 6.5976V6.56395L7.44101 6.32485H7.37509ZM7.37509 13.2306L7.34177 13.2986V13.333C7.34177 13.441 7.37509 13.6351 7.44101 13.9142H7.50694C7.50694 13.8402 7.55066 13.7145 7.63948 13.5384C7.63983 13.4817 7.55101 13.379 7.37509 13.2306ZM8.26822 2.42744H8.43372C8.59923 2.42744 8.69882 2.86064 8.73143 3.7267V4.68414C8.73143 5.40213 8.64365 5.81231 8.46669 5.91468H8.26822C8.09785 5.91468 7.99861 5.51618 7.97119 4.71814V3.65868C8.02498 2.83761 8.12457 2.42744 8.26822 2.42744ZM8.36745 7.00884C8.60999 7.03718 8.73143 7.16293 8.73143 7.38502C8.70402 7.47606 8.64851 7.54477 8.56628 7.59011H8.30153C8.12457 7.59011 8.03678 7.49943 8.03678 7.3163C8.03713 7.16258 8.14642 7.05985 8.36745 7.00884ZM8.36745 14.0853H8.53296C8.69882 14.0853 8.79736 14.5299 8.83033 15.419V15.8291C8.83033 16.7866 8.72034 17.3678 8.50035 17.5729H8.33414C8.13567 17.4242 8.03712 16.912 8.03712 16.0339V15.7948C8.06939 14.6549 8.18042 14.0853 8.36745 14.0853ZM8.33414 12.4103H8.59923C8.70922 12.479 8.76405 12.5587 8.76405 12.6501C8.76405 12.8325 8.64365 12.9462 8.40076 12.9919C8.21859 12.9919 8.10861 12.8665 8.06975 12.6157C8.11381 12.4786 8.20194 12.4103 8.33414 12.4103ZM9.39278 5.64087C9.39278 5.80629 9.31541 6.07939 9.161 6.46123C9.22692 6.61531 9.33762 6.75204 9.49202 6.87176H9.55794C9.62387 6.68934 9.65718 6.57564 9.65718 6.52959C9.52463 6.00571 9.45871 5.70887 9.45871 5.64051H9.39278V5.64087ZM9.4254 13.1963C9.2932 13.3503 9.22693 13.4414 9.22693 13.4697C9.2932 13.6468 9.34872 13.8285 9.39278 14.017C9.44205 14.017 9.49757 13.8232 9.55829 13.4354C9.53018 13.2767 9.48646 13.1963 9.4254 13.1963ZM10.7158 11.111H10.8144C10.9469 11.1907 11.0128 11.2934 11.0128 11.4185V11.4528C11.0128 11.6235 10.9021 11.7266 10.6818 11.7606H10.6492C10.4722 11.7489 10.3845 11.6579 10.3845 11.4865C10.4511 11.2364 10.5618 11.111 10.7158 11.111ZM10.6822 8.34175H10.7162C10.9139 8.34175 11.0132 8.46749 11.0132 8.71792C10.9747 8.92336 10.8862 9.02574 10.7484 9.02574C10.5274 8.93541 10.4174 8.80967 10.4174 8.64992V8.61556C10.4174 8.43314 10.5059 8.34175 10.6822 8.34175ZM10.55 12.6157V12.6501C10.55 12.7521 10.7922 12.8435 11.2779 12.9235C11.1731 12.7521 11.0632 12.627 10.9473 12.5473C10.8369 12.547 10.7051 12.5697 10.55 12.6157ZM10.5833 7.45303C10.7481 7.52174 10.8695 7.55539 10.9469 7.55539C11.0899 7.36766 11.2332 7.19658 11.3765 7.04249H11.3105C10.8255 7.15124 10.5833 7.28796 10.5833 7.45303ZM11.6412 9.33355H11.6749C11.8563 9.19647 11.9889 9.05974 12.0711 8.92337C11.7845 8.92302 11.6412 9.05938 11.6412 9.33355ZM11.6412 10.6668V10.7008C11.6412 10.9743 11.7516 11.1114 11.9719 11.1114H12.1378C11.8834 10.8152 11.7297 10.6668 11.6749 10.6668H11.6412ZM14.6509 6.0514C14.7495 6.09709 14.8053 6.14278 14.8161 6.18812V6.32485C14.6842 6.76337 13.8133 7.34499 12.204 8.06794H12.0715C11.9559 8.06794 11.8789 8.0226 11.84 7.93122V7.72612C12.5951 6.97413 13.389 6.44954 14.2214 6.15341C14.4136 6.08576 14.5572 6.0514 14.6509 6.0514ZM12.1044 11.9661C12.9087 12.1481 13.8133 12.6954 14.8157 13.6068L14.8494 13.7779C14.8213 13.8685 14.7672 13.9373 14.6839 13.9826H14.552C13.6693 13.7435 12.7991 13.2189 11.9393 12.4099L11.8727 12.3075V12.1024C11.9115 12.0114 11.9889 11.9661 12.1044 11.9661Z" fill="#59140D"/>
</svg>
